<?xml version="1.0" encoding="utf-8"?>
<!-- Generator: Adobe Illustrator 21.1.0, SVG Export Plug-In . SVG Version: 6.00 Build 0)  -->
<svg version="1.1" id="圖層_1" xmlns="http://www.w3.org/2000/svg" xmlns:xlink="http://www.w3.org/1999/xlink" x="0px" y="0px"
	 viewBox="0 0 5625 784" style="enable-background:new 0 0 5625 784;" xml:space="preserve">
<g>
	<path d="M3591.1,328.1c10.2-0.2,19.4,0.5,27.6,1.7c4.6,0.7,9.4,1,14.7,1.3c7.4,0.3,14.7,0.5,22,0.9c3.8,0.2-84.1-15.3-80.5-15
		c10.5,1-3.9,2.2,7.9,2.4c1.7,0,3.9,0.1,5,0.3c6.6,1.5,16,1.6,23.7,2.6c1.8,0.2,4.2,0.3,6.3,0.4c7.4,0.3,15,0.4,22,0.9
		c17.3,1.3,34.8,2.2,52.7,2.9c8.7,0.3,17.2,0.8,25.4,1.7c5.3,0.6,11.9,0.8,18,0.9c3.6,0,7,0.1,10.2,0.5c8.4,0.9,17,1,26,0.7
		c2.1-0.1,4.6-0.2,6.5-0.1c6.5,0.5,13.3,0.3,19.7,0.5c7.9,0.3,16.7-0.5,23.8,0.9c0.6,0.1,1.7,0.1,2.6,0.1c9.2,0.2,18.5,0.6,27.7,0.7
		c9.1,0.1,18.3-0.3,27.4,0.3c0.4,0,0.8-0.1,1.3-0.1c10.9,0,14.6-14.4,31-14.5c2.7,0,5.3-0.1,8-0.1c5.7,0.1,11.7,0,16.8,0.4
		c4.9,0.4,9.4,1,14.9,1.1c3.5,1.2,9.7,0.7,14.4,1.1c21.9,1.8,23.8-7,32.3-6.2c3.4,0.3,6.5,0.6,8.7,1.2c7.5,2.1,18.2,2.6,29.4,2.9
		c2.1,0.1,4.5-0.1,6.4,0.1c6.4,0.6,13.1,0.5,19.7,0.6c3.1,0.1,6.5-0.1,9.2,0.2c5.2,0.5,10.5,0.5,15.7,0.3c11.4-0.3,22.4,0.3,32.7,1
		c10.6,0.7,21,1.5,31.9,1.9c15,0.6,27.8,2.5,42.2,3.4c1.8,0.1,3.9,0.6,4.3,1c1.2,1,4.5,1.3,8.5,1.6c6.7,0.5,13.2,1.1,19.9,1.6
		c13,0.9,19.8,3.5,30.1,5.1c3.6,2.1,12,3.1,20.1,4c5.9,0.7,8.1,1.7,9.2,3c0.6,0.7-0.1,1.4,0.3,2.1c0.8,1.5-1.2,3.1,2.1,4.8
		c9.9,0,16.4,1.6,23.6,2.9c8.3,1.4,14.2,3.5,24.8,4.3c1.5,0.1,2.5,0.5,3.8,0.8c6.1,1.2,12.3,2.4,18.9,3.7c1,1.9,1.2,3.7-4.7,5.5
		c-5.8,1.7,166.1,20.5,167.2,21.1c1.6,0.9,3.7,1.7,1.7,2.8c-0.6,0.3,1.6,1.2,3.5,1.4c5.3,0.7,10.9,1.2,16.6,1.7
		c5.7,0.5,12.1,0.7,17.5,1.3c8.7,1,18,1.7,27.2,2.4c5,0.4,10.8,0.7,14.2,1.5c5.1,1.2,11.3,2,17.5,2.6c9.7,0.9,16.1,2.7,24.4,4
		c6.9,1,12.7,2.4,18.8,3.7c4.4,0.9,9.5,1.5,15.5,1.4c6.4,0,12.2,0.3,17.5,1.1c1.8,0.3,3.9,0.5,5.9,0.6c7,0.6,14.1,1.2,21.1,1.8
		c14.4,1.2,28.7,2.5,44.3,2.9c8.6,0.2,17,0.7,23.5,2.3c3.7,0.9,9.8,1.3,14.4,2c9.4,1.5,18.3,3.1,28.1,4.4c6.8,0.9,13.7,2.1,22.5,1.8
		c1,0.5,1.9,1.2,3,1.3c7.8,0.1,12,1.6,18.1,2.3c6.8,0.8,13.5,1.8,19.4,3c18.3,3.6,15.5,2.8,39.5,5.6c11.4,1.3,23.5,2.3,36.4,2.6
		c2.6,0.1,5.3,0.3,7.5,0.6c8.4,1.1,17.5,1.9,26.7,2.6c7.3,0.5,13.5,1.4,17.7,2.9c2.2,0.8,5.8,1.5,8.9,2.2c4.3,1,8.8,1.9,13.1,2.9
		c4,0.9,7.3,1.9,8.9,3.2c2.5,2.1,4.9,4.1,3.6,6.3c-0.6,1.1-1.3,2.1-1.9,3.2c7.4,1.2,16.1,1.6,24.2,2.3c13.8,1.2,25.9,2.9,37.7,4.9
		c5.3,0.9,8.4,2,10.9,3.3c2,1,2.6,2.1,5,3c2.6,1,2.9,2.1,7.5,3c3.3,0.6,4,1.9,5.9,2.9c0.1,0.1,0.7,0.1,1.3,0.2
		c2-0.2,4.2-0.4,7.4-0.7c-1,0.8-1.7,1.4-2.5,2.1c3.1,0.3,6.3,1,8.6,0.8c8.9-0.5,18.8,0,26.8-1.3l0.4-0.1c0.6,0.2,1,0.6,1.8,0.6
		c2.9,0.1,5.2,0.1,7.8,0.7c4.1,1,7.2,1.9,7.2,3.2c3,0.2,3.3-0.4,4.7-0.5c1.9-0.2,4-0.2,5.8-0.3c1.4-0.9,1.6-1.8,5.6-2.4
		c1.4,2.4,1.6,2.4,9.9,3.5c-0.3,0.2-0.3,0.4-0.8,0.5c-7.9,2.2-7.8,2.5,2.6,4c-0.2,0.2-0.2,0.3-0.6,0.5c-0.3,0.2-1,0.3-1.4,0.5
		c-3.2,1.6-2.7,1.8,5.6,2.5c0.5,0,0.8,0.2,1.3,0.4c-1.2,0.2-2.4,0.3-3.3,0.5c-0.7,0.2-1,0.4-2.1,0.8c8.9-0.3,15.7,1.4,23.6,0.4
		c5.2,1.5,5.2,1.5,18.1,1.2c-0.7,1.1-1.3,2.3-2.1,3.7c3.3-0.3,5.6-0.3,6.9-0.6c1.8-0.4,2.9-1,4.3-1.5c4.6-1.7,5.3-1.8,16.2-2.4
		c-2.9,3.1-2.9,3.1,0,4.7c-3.8,0.4-7.3-0.8-11.5,0c1.4,0.4,3.2,0.8,4.2,1.3c1.2,0.6,1.6,1.3,2,1.6c4.5,0.5,7.8,1.1,11.4,1.2
		c3.5,0.2,7.4-0.1,11.1-0.2c1.5,1.5-5.3,3,2.5,4.2c0.3,0.1,0.3,0.4-0.1,0.5c-4.5,1.1-2,2,2.3,2.7c2.9,0.4,3.9,0.8,4.6,1.6
		c0.8,0.9,3.3,1.8,5.7,2.5c1,0.3,3.8,0.3,5,0.8c1,0.4,3.5,0.7,5.3,1c-1.9,0.7-3.4,1.2-5.5,1.9c3.9,0,6.5,0,10.2,0
		c0.1-1.1,1.4-2.1,7-2.5c2-0.1,3.2-0.9,4.5-1.4c1.3-0.5,1.5-1.2,5.4-1.3c0.8,0.6,1.6,1.1,2.5,1.8c3.9-0.3,7.2-0.5,10.5-0.8
		c0.9-0.4,1.7-0.8,2.3-1.1c2-1.3,6.4-2,12.1-1.9c4.4,0.1,7.2-0.6,10.7-0.8c0.9,0.3,1.7,0.5,2.6,0.7c2.2-0.3,4.4-0.6,6.8-0.8
		c0.9-0.1,3.2,0.1,3.4,0.2c0.4,0.3,0.4,0.8-0.4,1c-2.5,0.5-6,0.9-8.3,1.4c-2.8,0.7-6,0.8-9.6,0.7c-2.2-0.1-4.3-0.3-6.4-0.2
		c-1.3,0-2.6,0.4-4.6,0.7c4.8,0.3,8.5,0.5,12,0.7c0.1,0.3,0.4,0.5,0.2,0.7c-0.6,0.5-0.3,1,2.6,1.1c3.1,0,3.1-0.5,3.4-1
		c0.1-0.1,0.8-0.3,1.2-0.4c2.3,0.6,4.6,1.1,7.4,1.8c-13.3,1.2-26.8,0.7-39.8,0.6c-0.3,0.3-0.6,0.4-0.4,0.5c3.2,1,11.2,1,10.4,2.8
		c0,0.1,1.1,0.3,1.9,0.4c7.5,0.8,15.9,1.1,23,0.3c9.9-1.2,20.7-2.3,26.3-4.8c0.6-0.3,1.7-0.4,2.6-0.6c2.6,0,4.1,1,7.2,0.3
		c-0.5-1.2-0.5-1.2,3.8-2.1c-0.4-1.2-3-2.5,0.8-3.7c0.4-0.1,1.3-0.2,2.3-0.3c1.6,0.8,3.2,1.5,4.8,2.3c8.4-0.7,8.4-0.7,14.2-0.2
		c-1.2,0.6-2.4,1.1-3.1,1.5c1.2,1.1,7.2,0.6,7.9,1.8c-2.5,0.2-5.1,0.2-7.7,0.2c-5.3,0.1-10.6,0.1-15.9,0.2c-0.6,0-1,0.3-1.8,0.5
		c1.9,0.6,3.8,1.2,5.7,1.8c-2.8,0.5-5,1-7.2,1.4c2.6,0.5,4.8,1,6.9,1.4c-4.1,1.5-10.5,0.1-14.7,0.8c-2.7,1.1-1.4,2.3-1.5,3.5
		c-0.1,1.2-0.7,2.4-1.1,3.7c3.9-0.6,7.4-1.3,11.1-1.8c1.8-0.3,4.1-0.4,6,0.1c0.2,0.5,0.4,0.9,0.5,1.4c2.8,0.4,6.2-0.6,8.9,0.4
		c-2.8,0.4-5.6,0.8-8.5,1.2c2.8,0.4,5,0.8,8,1.3c-6.3,0.4-10.9,0.1-15.7-0.2c-1.5-0.1-3.6,0.3-5.3,0.4c1.5,0.8,2.6,1.4,3.7,2.1
		c0,0-0.7,0.1-1.1,0.1c-0.8,0-1.7-0.1-2.5-0.1c-8.6-1.1-10.7-1.2-17.1,0.2c-2.8,0.6-6.7,0.3-8.8,1c7.5,2.9,17,4.4,37.4,6
		c2.9-0.5,5.8-1,8.7-1.5c2.9,0.6,0.7,1,0.3,1.5c-0.3,0.4-1.2,1-0.7,1.1c5.3,0.8,2.6,1.9,3.4,3c5.7,1,11.2,2.2,17.8,2.9
		c8.5,1,14.7,2.4,20.7,4c3.1,0.8,6.8,1.6,8.6,2.6c2.3,1.2,5,2.3,8.7,3.2c3,0.8,5.4,1.6,5.6,2.6c0.2,1.3,3.6,2.1,7,3.1
		c7.6,2.1,17.3,3.4,28.4,4.1c7,0.5,12.8,1.3,17.7,2.5c4,0.9,8.5,1.7,13.1,2.5c5.5,0.9,10.6,1.9,12.9,3.6c2.6,1.9,7.9,3.7,13.2,5.4
		c2.8,0.9,4.7,1.7,4.1,2.7c-1.3,2.3-3.1,4.6-6,6.9c-0.2,0.2-1.1,0.3-2.6,0.7c-12.7,0.6-26.4,1.3-40.2,1.9
		c-13.1,0.6-26.1,1.1-37.8,2.6c-2.3,0.3-4.8,0.5-7.3,0.7c-7.3,0.6-14.6,0.7-21.8-0.2c-1.9-0.2-4-0.4-6.3-0.6
		c-1.5,0.1-3.2,0.3-4.9,0.3c-6.3,0.2-9.2,1-8.6,2.5c0.2,0.5-1,1.1-1.7,1.8c-9.4,0.4-18.5,0.7-27.6,1.1c-6.8,0.3-13.2,0-19.3-0.7
		c-10.5-1.2-22.9-1.6-31.6-3.6c-0.9-0.2-2.2-0.3-3.5-0.4c-10.2-0.6-20.4-1.3-30.7-1.8c-8.2-0.4-16.2-1-23.8-1.7
		c-4.8-0.5-9.7-0.9-14.7-1.3c-9-0.8-18.3-1.4-25.5-3c-6.3-1.4-13.9-1.9-23.4-1.2c0,0.6,0,1.2,0,2.5c-2.4-1-3.8-1.5-4.8-2
		c-1.6-0.8-2.8-1.7-4.6-2.4c-1.3-0.6-3.6-0.9-7.2-0.4c-0.5,0.4-1.5,0.8-1.9,1.3c-0.9,1.2-3.1,2.5-1.6,3.6c1.3,1,6.5,1.8,10.1,2.6
		c2.4,0.5,6.7,0.6,7.5,1.6c0.1,0.2-0.2,0.3-0.4,0.6c-2.7-0.4-5.3-0.7-8.2-1.1c-3.2,0.3-6.4,0.6-9.5,0.8c3.1,2.4,3.8,4.9,11.5,6.8
		c-1.8,0.5-3.5,1.1-4.8,1.5c-10.8-0.3-10-2.8-17.4-3.7c-1.9,0.2-3.9,0.3-6.3,0.6c4.9,2,12.6,3,19.6,4.1c10.5,1.6,21.3,3.2,31.9,4.8
		c8.1,1.2,13.5,2.7,18.6,4.5c7.1,2.4,11.6,5.3,22.8,7.1c0.7,0.1,1.1,0.3,1.6,0.5c6.3,2.3,12.1,4.8,22.5,6.4c1.3,0.2,1.8,0.7,3,1
		c2,0.5,4,1.1,6.6,1.4c9.6,1,15.7,2.9,21.8,4.7c6.6,1.9,9,4.1,9.4,6.5c-7,0.5-13.4,0.9-19.6,1.5c-3,0.3-5.8,0.3-9,0.1
		c-7.1-0.5-14.1-1-20.9-1.8c-8.9-1.1-18.4-1.9-25.7-3.5c-0.3-0.1-0.7-0.1-1.1-0.2c-7.7-0.7-15.4-1.4-23-2.1
		c-7.4,0.8-10.8-0.5-15.5-1.3c-3.6-0.7-8.5-1.3-12.9-1.3c-6.2,0-11.2-0.6-16.3-1.1c-8.3-0.9-17-1.5-26.1-1.8
		c-6.4-0.3-13.1-0.4-18.7-1.3c-1.3-0.2-3.3-0.3-5-0.3c-15,0.1-27.1-2.3-41.8-2.4c-0.8,0-1.6-0.2-2.2-0.3c-2.5-0.7-6-0.7-9.5-0.9
		c-7.5-0.4-16-0.2-22.4-1.5c-0.8-0.2-2.6-0.1-3.9-0.1c-4.2,0.1-7.6-0.3-11.3-0.7c-4.5-0.5-9.6-0.9-13.1-1.2
		c-7,1.4-13.1,2.7-19.1,3.9c1.3,0.4,2.6,0.8,4.4,1.3c-4.6,0.1-8.8-0.1-11.9,0.2c-7.1,0.8-15.5,0.9-21.1,2.4
		c-1.5,0.4-4.7,0.6-7.2,0.6c-7.1,0-14.2,0-21.2-0.1c-3.8-0.1-7,0.1-9.6,0.7c-7.6,1.8-18.1,3.1-22,5.5c-8.3-0.2-15.8-0.3-23-0.5
		c-1.4,0.3-2.4,0.4-3.4,0.6c-1.4,0.2-2.7,0.5-4.1,0.7c-6,0.9-7.5,0.8-11.4-0.6c-3.1-1.1-9.7-1.7-13.1-1c-3.8,0.8-8.6,1.3-10.4,2.6
		c-3.9,2.7-13.9,4-25.7,4.4c-8.8,0.3-17.5,0.6-25.9,1.2c-3.8,0.3-7.4,0.4-11.5,0.4c-8.8,0-17.2,0.5-24.6,1.8
		c-9.9,1.7-18.6,3.8-29.5,5.3c-2.2,0.3-4.5,0.7-5.7,1.2c-1.1,0.4-0.8,1-1.1,1.6c-2.3,0-3.9,0-5.3,0c-4.3,0.9-1.8,2.1-3.9,3
		c-1.4,0.6,1,0.9,1,1.3c0.1,0.8-0.8,1.5-1.5,2.3c-0.1,0.1-1.1,0.3-2.2,0.5c-5.1-1.2-5.4,0.6-8.4,0.8c-2.5-0.6-0.4-1.7-5.2-1.9
		c-3.9,0.7-2,2.1-5.8,2.8c-2.8-0.3-1.9-0.7-1.5-1.1c0.4-0.4,0.3-0.9,0.4-1.4c-3.6,0.5-6.5,0.7-8.9,1.2c-2,0.3-1.9,0.9,0,1.3
		c1.2,0.2,2.5,0.5,3.9,0.7c-3.6,1-6.3,1.7-6.5,3.1c-0.2,1.3-4.5,2.6-8.6,3.7c-2,0.6-4.4,1-8.2,1.1c-3.8,0.1-8.5,0.3-10.8,1.3
		c-0.3,0.1-2.3,0.1-3.5,0c-2.6-0.1-4.1,0.1-5.2,0.6c-0.7,0.3-2.1,0.8-3.1,0.8c-6.3-0.1-9.3,1-13.3,1.8c-2.2-0.7-4.1-1.3-5.7-1.8
		c-8-0.1-5.1,1.6-8.8,2.4c-5.1-1.2-9.6-2.2-14-3.2c-0.9,0.1-2.1,0.1-2.4,0.2c-4.8,1.6-9.9,3.1-11.7,5.1c-1.5,1.6-4.8,3.1-6.1,4.7
		c-0.2,0.3-0.7,0.6-1.6,0.8c-3.8,0.9-8.9,1.7-11.4,2.8c-3.2,1.4-9.8,1.2-14.4,2c0.2,0.8,0.4,1.5,0.6,2.3c-2.2,0.3-4.4,0.5-6.9,0.8
		c1.6,0.7,3,1.3,4.2,1.9c5.1,2.7,9.5,5.5,15.3,8.1c3.4,1.6,2.9,3,1.4,4.5c-1.4,1.5-5.5,2.5-11.6,3c-9.1,0.8-18.8,1-28.4,1.3
		c-1.7,0-3.5-0.1-5.2-0.2c-9.2-0.2-18.5-0.3-27.1-0.4c-3,0.8-2.1,1.3,1.2,1.5c2.6,0.2,4.5,0.7,3.2,1c-5,1.4-2.8,2.7-0.4,4.1
		c0.6,0.4,1.8,0.8,1.4,1.1c-2,1.4,1.9,2.6,3.8,3.7c-3.2,1.7-8.2,3-6.5,4.9c0.3,0.4-1.1,1-2.5,1.3c-5.1,1.1-9.6,2.3-16.8,2.8
		c-2,0.1-4.2,0.4-5.6,0.7c-3.3,0.8-7.4,0.9-12,1c-7.5,0.2-14.8,0.5-22.3,0.7c-7.4,0.2-15.1,0-21.8,1c-1.2,0.2-3.5,0.2-5.1,0.1
		c-3.9-0.1-8.1-0.2-11.7-0.5c-9.8-0.9-19.6-0.8-28.3,0.3c-9,1.1-17.1-0.7-25.8,0c-2.3,0.2-5.9-0.3-8.7-0.6
		c-7.6-0.8-14.9-1.7-22.6-2.4c-7.6-0.7-15.4-1.5-23.4-1.8c-9.1-0.3-16.9-1.1-24.9-1.9c-0.4,0-0.9,0-1.3-0.1
		c-9.2-0.2-18.4-0.6-27.6-0.7c-9.4-0.1-18.4-0.5-27.4-1c-13.7-0.8-27.9-1.1-41.6-1.8c-5.6-0.3-11.2-0.5-16.4-1.2
		c-2.6-0.3-5.7-0.6-8.6-0.6c-7.4,0-15-0.2-21.9,0.3c-1.7,0.7-3.2,1.2-5.3,2.1c-0.3-0.9-0.5-1.5-0.7-2.2c-3.3,0-6.3-0.1-9.4-0.1
		c-3-0.1-6.1-0.3-9.1-0.2c-2.7,0.1-5.4,0.4-8,0.5c-2.3-1.3-2.5-1.4-6.1-1.1c-2.8,0.3-4.3,0.4-6.1-0.4c-0.7-0.3-3.8-0.5-6-0.5
		c-6.4-0.3-12.8-0.6-19.2-0.6c-10.5-0.1-21.1-0.1-31.4-0.8c-3.7-0.2-7.9-0.3-11.8-0.2c-17.7,0.2-35.1,0.1-52.6-0.9
		c-21.4-1.2-43.3-2-64.9-2.9c-2.2-0.1-4.4,0-6.6-0.1c-3-0.1-6.2-0.2-9-0.4c-5-0.4-9.8-0.9-14.5-1.5c-4.3-0.5-9-0.9-12.6-1.6
		c-4.1-0.8-9-1.1-13.5-1.7c-1.8-0.2-3-0.7-4.4-1.1c-2.8-0.7-5.5-1.5-7.8-2.1c-6.6-0.6-14.3,0.2-18.6-1.3c-7.1-0.2-13.1-1-18.3-2.1
		c-6.6,0.5-12.9,0.9-19.9,1.4c-1.2-0.1-3.2-0.3-5.3-0.5c-12.4-0.7-24.5-1.7-37.7-1.4c-7,0.1-14.1,0-20.9-0.7
		c-3.6-0.3-7.7-0.5-11.7-0.5c-18.4-0.2-35.4-1.8-51.9-3.3c-12.6-1.2-25.6-2.2-38-3.5c-4.2-0.4-8.3-1.1-13.8-0.7
		c-1.5,0.1-4.2-0.2-5.9-0.5c-3.3-0.5-6.8-0.8-10.7-1.1c-8.8-0.5-16.2-2-26.1-1.8c-1.4,0-2.8-0.4-4.4-0.6c-7.9-0.9-15.1-2.1-24.7-1.9
		c-2.4,0.1-5.1-0.3-7.6-0.5c-12-1-23.6-2.2-36.8-2.3c-5-0.1-9.9-0.7-14.6-1.2c-10.3-1-20.5-2.1-30.5-3.1c-2.8,0.3-4.8,0.5-6.8,0.6
		c-1.9,0.2-3.9,0.3-5.7,0.4c-5.8-2.5-5.8-2.5-20.4-4c0.1,0.5-0.1,0.8,0.4,1.2c1.9,1.1,4.3,2.2,6,3.3c2.1,1.4,5.4,2.8,5.3,4.2
		c-0.2,3.3-2.1,6.6-3.4,9.9c-0.2,0.4-0.9,0.8-1.5,1.1c-4,2.4-5.4,4.9-7.7,7.4c-0.8,0.8-2.4,1.7,2.7,2.3c1,0.1,1.2,0.7,1.1,1.1
		c-0.6,1.4-1.5,2.7,2.9,3.9c-0.5,2.2,4.6,3.9,9.9,5.6c1,0.3,2.1,0.7,2.5,1c1.6,1.5,4.1,3.1,1,4.6c-6.4,2.9-14.9,5.6-28.5,7.1
		c-4,0.5-6.2,1-7.2,1.9c-1.5,1.3-4.9,2.2-10.9,2.8c-5.7,0.5-11.2,1.2-16.3,2c-4.6,0.7-9.1,1.1-14.7,1.2c-2.5,0-5.9,0.2-7.2,0.6
		c-3.9,1.2-9.5,1.6-15.2,2.1c3.8,2.6,3.8,2.6-0.8,5.3c-4.4-0.8-10.1-0.1-15.2-0.8c-3.9-0.5-10,0.7-15.3-0.1c-0.3,0-1.8,0.4-2.9,0.5
		c-1.4,0.2-3.5,0.5-4.3,0.3c-5.4-0.8-9.1-0.1-13,0.6c-0.6,0.9-0.7,1.7,1.7,2.5c1.3,0.4,1.7,1,2.2,1.3c-3.8,1.5-9.7,0.6-14.3,1.1
		c-0.2,1.5-1.4,2.9-6.1,4c-4.1,1-8,2-12.4,3.1c-2.3-1.5-7.2-2.2-13.3-2.9c-1.2,0.2-3.2,0.4-3.9,0.7c-2.5,1.1-6,1.9-11.1,2.4
		c-1.5,0.1-2.4,0.6-3.8,0.8c-0.5,0.1-1.6,0-2.8,0.1c-0.3-0.7,1-1.6-3-2c-0.9,0-1.9,0-2.6,0.1c-1.2,0.1-2.7,0.3-3.2,0.5
		c-2.8,1.2-7.7,1.4-13.5,1.4c0-0.8,0-1.5,0-2.2c-4.2-0.3-7.6-0.8-11.3-0.9c-3.7-0.1-7.6,0.1-11.5,0.1c-0.7-0.4,0-1-3.2-1.3
		c-1.5-0.2-1.8-0.9-2.6-1.4c-13.7-0.1-26.6,0.5-39.3,1.4c-5,1.1-11.1,1-17.4,0.9c-2.1,0-4.3,0.1-6.8,0.2c-2,1.7-7.6,2.1-14.4,1.9
		c-4.5-0.1-8.8-0.1-13,0.3c-17.4,1.8-34.8,3.6-52.2,5.4c-6.8,0.7-13.6,1.4-20.5,2c-7.3,0.7-14.9,1.1-22.1,2
		c-6.4,0.7-14.5,0.7-21.9,1c-6.1,0.2-12.3,0.4-18.2,0.7c-6.2,0.4-12.2,0.3-18.4,0c-3.4-0.2-6.9-0.2-10.4-0.3
		c-4.3-0.1-7.5,0.5-11.3,0.7c-4.1,0.2-8-0.6-12.7-0.3c-9.8,0.6-20.4,0.4-29.8,1.4c-1.1,0.1-2.7,0.2-3.8,0.1
		c-9.4-0.6-18.6-0.1-27.5,0.4c-8,0.4-15.8,0.5-23.7,0.2c-5.8-0.2-12.3,0.3-17.2-0.8c-0.2-0.1-0.9-0.1-1.3,0
		c-7.2,0.6-18.5-0.5-20.6,2.3c-0.1,0.2-0.9,0.3-1.6,0.5c-13,2.2-26.3,4-43.8,2.6c-7.8-0.7-16.1-1-23.9-1.8c-7.4-0.8-15.9-1.1-24-1.6
		c-6.4-0.4-12.9-0.8-19.4-0.9c-8-0.2-15.7-0.6-23.1-1.3c-5.6-0.6-11.2-1.3-17.2-1.5c-6-0.2-10.6-1.6-17.5-0.9
		c-0.7,0.1-2.7-0.2-3.2-0.4c-3.7-1.5-10.7-1.7-16.8-2.1c-7.8-0.5-15.7-0.9-23.4-1.7c-7.1-0.7-15.1-1.1-22.9-1.4
		c-6.3-0.2-11.7-0.7-17.2-1.4c-8.8-1.1-18.1-2-28.6-1.4c-7.6-1.4-15.9-2.3-25.3-2.6c-20.2-0.7-38-3.1-57.7-4.2
		c-9.2-1.3-18.7-2.5-29.5-3.1c-8-0.5-15.5-1.4-23.1-2.2c-6.8-0.7-13.4-1.5-20-2.3c-11.3-1.3-22.7-2.5-35.8-2.8
		c-4.6-0.1-9.9-0.1-13.2-1.1c-0.7-0.2-2.2-0.3-3.4-0.4c-5.4-0.4-10-1.4-16.3-1c-9.5-0.8-19.4-1.4-27.2-2.9c-4.8-0.9-10-1.6-16.8-1.4
		c-2.5,0.1-5.5-0.1-7.7-0.3c-10.3-1.3-22.3-1.2-32.9-2.3c-3.2-0.3-6.8-0.6-10.2-0.6c-6-0.1-11.2-0.7-15.9-1.4
		c-8.6-1.3-17.3-2.4-27.8-2.6c-1.3,0-2.7-0.2-3.6-0.4c-3.6-0.8-8.5-1-13-1.4c-6.9-0.6-13.9-1.3-20.2-2.2c-6.4-0.9-14.2-1-20.1-2
		c-3.9-0.7-8.3-1.1-13.6-1c-1.7,0-3.6,0-5.2-0.2c-14.2-1.3-29.3-2.1-44-3c-7.2-0.5-14.3-1-21.5-1.5c-4.1-0.2-8.7-0.2-12.8-0.5
		c-4.2-0.3-8-0.9-11.9-1.3c-0.8-0.1-1.7-0.1-2.5-0.2c-9.5-0.4-19.1-0.7-28.6-1.1c-2.2-0.1-4.3-0.2-6.3-0.5
		c-8.5-0.9-17.7-1.3-26.8-1.6c-5.3-0.2-10.3-0.5-15.2-1c-17.4-1.7-34.9-3.4-54-3.9c-7.9-0.2-15.8-0.4-23.4-1.1
		c-2.3-0.2-5.2-0.1-7.8-0.1c-1.7,0-3.5,0-5.1-0.1c-6.2-0.5-12.8-0.9-18.4-1.7c-5.6-0.7-11.3-1-18.2-1.2c-2.1,0.3-4.8,0.7-6.9,1.2
		c-7,1.6-16.2,2-24.5,1.3c-7.7-0.6-13.7-0.2-20.3,0.3c-7.5,0.6-15.2,1-23.3,0.9c-7.9-0.1-15.8-0.2-23.8-0.3c-3.5,0-7.2,0-10.4-0.2
		c-5.8-0.4-11-0.3-16.7,0.1c-11.5,0.8-23.2,1.2-35.3,0.5c-5.3-0.3-11.2-0.2-15.8-1c-7.4,0.1-13.8-0.5-20.5-1.1
		c-2.8-0.2-6.2-0.4-9.1-0.3c-13.4,0.5-26.4-0.2-39.4-0.7c-7.1-0.3-13.9-0.5-21-0.2c-3,0.1-6.1,0.3-9.2,0.3
		c-10.8-0.1-20.7,0.7-30.6,1.4c-10.5,0.8-20.8,1.4-32.4,0.7c-9.5-0.6-19.8-0.9-29.7,0.3c-3.6,0.4-9,0.6-12.9,0.3
		c-10.7-0.7-20.9-0.3-31.3,0.1c-3,0.1-6.2,0.3-9.2,0.2c-12.2-0.4-24.5-0.7-36.5-1.4c-9.4-0.5-18.2-1.5-27.4-2.2
		c-4.6-0.4-9.2-0.8-13.9-0.9c-9.3-0.3-18.3-0.7-26.9-1.5c-1.6-0.2-3.4-0.2-5.1-0.3c-10.8-0.5-21.2-1.5-32.5-1.3
		c-14.7-1.1-30.7-0.8-45.3-2.1c-3.5-0.3-7-0.1-9.6,0.6c-1.4,0.4-2.8,0.7-4,1c-2.1-0.1-3.6,0-4.7-0.2c-9.1-1.2-19.4-1.7-29.6-2.3
		c-2.5-0.1-5-0.3-7.3-0.6c-18-1.8-12.3-2.2-30.7-2.3c-4.8,0-9.7-0.3-14.5-0.3c-3,0-6.2,0-9.2,0.1c-5.4,0.1-8.7,0.8-10.1,2
		c-1.3,1.1-3.2,2.2-4.9,3.4c-8.2,0.4-15.5,1-22.5,1.9c-16,2.1-33.9,2.9-52.1,3.1c-10.1,0.1-20.2,0.3-30.4,0.4
		c-4.9,0-9.8,0.3-14.5,0.2c-16.4-0.3-32.6,0.1-48.8,0.4c-13.2,0.3-26.4,0.2-39.4-0.5c-2.9-0.2-6.6-0.2-9.1,0
		c-7.8,0.9-15.5,0.5-23.3,0.1c-2.1-0.1-4.5-0.2-6.4-0.1c-5.8,0.4-11.9,0.9-17.1,1.6c-7.2,1-13.5,2.2-20.5,3.2
		c-4,0.6-8.4,1.3-12.8,1.4c-8.7,0.2-16.1,1-24,1.6c-7.5,0.6-14.7,1.3-22.4,1.8c-10.2,0.6-20.7,1.2-31.2,1.3
		c-11.6,0.2-20.2,1.9-31.2,2.3c-15.8,2.1-33.6,2.9-51.3,3.6c-8.6,0.4-17.6,0.3-26.5,0.3c-13.4-0.1-26.5,0.3-39.1,1.3
		c-9.9,0.8-19.9,1.6-29.7,2.4c-12.4,1.1-25.8,1.3-38.7,2c-3.9,0.2-7.8,0.3-10.9,1c-5.6-0.8-7.6,0.2-9.9,1c-0.4,0.1-1.5,0.2-2.3,0.3
		c-6.3,0.4-12.5,0.7-18.8,1.1c-6.7,0.4-9.8,1.2-6.7,2.5c2.2,0.8,1.2,1.4,0.7,2.2"/>
	<path d="M3568,327.5"/>
	<path d="M3645.9,351.3"/>
	<path d="M944.9,710l-603.1,30h-147L0,733.9C0,438.8,0,295.1,0,0c457.8,0,915.6,0,1373.3,0c1.1,0.2,2.1,0.4,3.3,0.5
		c17.9,1.1,35.2,2.6,53.8,3.2c1.3,0,2.7,0.1,3.8,0.2c11.8,1.5,24.9,1.9,38,2.4c11.3,0.5,22.2,1.3,33.5,1.7
		c8.8,0.3,17.5,0.7,25.7,1.4c7,0.6,15,0.5,21.1,1.6c11.1,0.1,21.6,1.1,32.6,1.3c5.8,0.1,11.3,0.4,16.6,1c2.3,0.2,5.5,0.4,7.6,0.3
		c6.7-0.6,12-0.1,17.3,0.8c1.8,0.3,3.9,0.5,5.9,0.6c20.5,1.3,40.2,3,60.1,4.7c1.6,0.1,3.2,0.4,4.9,0.4c11.9,0.3,21.9,1.4,31,3.1
		c2.3,0.4,5.3,0.7,8,1c7.7,1,16,1.7,23,2.9c11.4,1.9,23.8,3.3,36.3,4.8c8.2,1,17.2,1.6,25.1,2.7c6.4,0.9,12.3,1.9,19.6,2.4
		c0.8,0.1,1.4,0.2,2.1,0.4c10.5,2,22.3,3.5,34.6,4.9c4,0.4,7.4,1,8.8,2.1c1.4,1.1,4.8,1.9,9.3,2.4c8.4,0.9,12.5,3.1,22.7,3.4
		c0.9,0,1.6,0.4,2.5,0.6c6.4,1.4,12.1,2.9,19.4,4c4.6,0.7,8.7,1.3,11.7,2.3c3.2,1,7.2,1.6,12.4,2c10.4,0.9,19.7,2.2,23.7,4.8
		c1.1,0.7,4,1.3,6.6,1.8c6.8,1.3,15.6,2.2,17.5,4.4c0.3,0.3,2.4,0.6,3.8,0.8c4,0.5,6.7,1.4,8,2.3c2.6,1.8,7.4,3.1,14.4,3.5
		c2.1,1,3.6,1.7,5.2,2.3c7.4,3.1,20.4,5.1,28.8,8c0.5,0.2,1.2,0.3,2,0.4c4.3,0.3,6.1,1,7.9,1.8c3.2,1.5,8.7,2.4,16.6,2.5
		c2.1,0,4.2,0.2,6.2,0.3c4.1,0.4,8,0.8,12.8,1.2c1.6,0.9,3.9,1.8,5.1,2.8c1.3,1,1.5,2.1,2.4,3.4c-9.4,0.2-11.6,2.6-20,3.3
		c-0.5,0-0.3,0.5-0.4,0.9c7.1,0.6,13.1,1.5,20.6,1.9c5.3,0.3,11.2,0.7,14.7,1.9c2.3,0.8,5.7,0.8,9.5,0.7c4.7-0.2,9.4-0.3,14.8-0.5
		c1.9-0.4,2.6-1.7,8.2-0.9c-4.5,1.9-4.5,1.9,2.4,4.3c1.7,0,3.5-0.1,5.2,0c3.4,0.1,7,0.2,10.2,0.5c3.9,0.3,0.9,1.3,2.5,1.8
		c0.9,0.3,1.7,0.6,3,1.1c-5.2,0.1-9.4,0.2-13.4,0.3c-0.2,0.8,1.4,1,3.8,1.1c4.5,0.2,7.9,0.7,8.1,1.8c-2.7,0.7-6.9-0.3-8.6,0.8
		c0.6,0.4,1.5,1,2.1,1.5c0.6,0.5,1.1,1.1,1.5,1.6c4.5,0.2,8.6,0.2,12.1,0.6c4,0.4,3.3,1.4,4.4,2.3c6.5,0.5,13,0.6,19.7,0.4
		c4.8-0.1,9.9-0.2,14.5,0c11.7,0.5,23.1,1.3,35,2c7.2,2.1,14.6,4.3,22.1,6.6c8,0.8,16.2,1.8,25,2.4c10.1,0.6,18.9,1.6,27.2,3.1
		c14.7-0.5,29.2,1,44.2,0.4c0.3,0,0.9,0.1,1.1,0.1c3.4,1,8.1,0.5,12.3,0.5c3.1,0,6.7-0.3,9.2-0.1c8,0.8,16.6,0.6,24.7,1
		c17.7,0.9,35.5,1.7,53.9,1.5c2.1,0,4.3,0.2,6.5,0.3c3,0.1,6.1,0.4,9.1,0.4c12.7-0.1,25.3,0.6,38.3,0.1c6.1-0.2,13.3-0.2,19.4,0.1
		c8,0.4,15.9,0.3,23.8,0.4c6.5,0,12.4,0.3,17.6,1.1c3.4,0.5,7.3,0.7,10.9,1c3.9,0.3,7,1.1,11.1,1.4c6.1,0.5,11.8,1.3,17.8,2
		c6,0.6,11.8,1.4,18.1,1.8c20.1,1.3,38.7,3.3,56.6,5.9c1.7-0.1,3.6-0.4,5.7-0.4c3.8-0.1,8.4-0.3,11.5,0c5.6,0.6,11,0.5,16.8,0.4
		c10.1-0.1,20.1-0.1,30.3,0.4c11.7,0.6,23.1,1.3,34.2,2.3c4.2,0.4,7.7,0.3,10.9-0.4c1.2-0.3,2.8-0.4,4.7-0.7
		c6.7,0.6,13.6,0.7,20.8,0.5c2.5-0.1,5.9-0.1,7.6,0.2c6,1,13.8,1.8,14.3,3.9c-3.5,0.6-7.2,1.2-11.6,2c10.1,2.2,15.1,5.1,28.8,6.2
		c2.2,0.2,3.4,0.9,5.3,1.2c4.9,1,9.2,2.2,16.9,2c1.2,0,2.4,0.1,3.6,0.3c9.1,0.9,282.2,45.9,290.7,46.8c0.4,0.8-0.4,1.6,1,1.9
		c7.3,1.9,9.6,4.2,11.3,6.5c1.9,2.5,3.9,5,8.2,7.4c-1.8,0.9-3,1.9-5.5,2.7c-2.2,0.7-6,1.1-9.1,1.7c-0.3,0.1-0.7,0.1-1.1,0.2
		c-4.9,0.9-4.6,2,1.5,2.4c5.1,0.3,6.1,0.9,6.3,1.9c0.2,0.6,0.4,1.3,0.7,2.2c4.2-0.3,7.3-0.5,10.3-0.7c-1.1-1.4-7.7-2.2-5.8-3.7
		c3.3-0.1,6.8,0,8.8-0.8c4.6,0.2,5.2-0.7,6.8-1.4c3.2,0.3,6.4,0.7,9.6,1l-0.2,0c-0.7,1-1.3,2.1-2,3.2c-4.4,0.1-8.2,0.2-11.7,0.3
		c-2.2,1.8,7,1.7,9,2.8c-6.3,0.8-11.4-0.8-16.8-0.1c-0.5,0.3-1.1,0.5-1.1,0.6c0.4,1.6,0.5,3.2-5.4,4.4c0.5,1.4-6.2,2.1-7.2,3.4
		c3,0.7,5.9,1.4,8.1,2c7.4,0.5,14,1,20.9,1.3c5.9,0.2,11.9,0.1,16.9,1.1c0.4,0.1,1.8,0,2.5-0.1c3.4-0.4,5.9-0.2,8.2,0.5
		c0.1,0,2.4-0.4,3.7-0.6c-3.3-1-1-2.2-2-3.3c-1.8-2.1-1.3-2.2,8.5-2.5c1.7,0,3.4,0,6,0c-0.5,1.8,9.4,3,5,5c-2.5,0.1-5,0.2-7.6,0.4
		c2.1,1.7,7.3,2.5,14.8,3c7.6,0.5,15.6,0.6,23,1.3c2.3,0.2,6,0.4,8.7-0.3c0.6-0.1,2.2-0.2,3.1-0.2c5.3,0.4,10.7,0.9,15.9,1.3
		c1.6,0.1,3.7,0.4,4.1,0.7c1.5,0.9,4.2,0.9,7.4,0.7c2,1.1,5.1,0.7,8.6,0.4c1.8-0.2,4.2-0.1,6.3-0.1c1.2-0.8,1.5-1.9,3.7-2.1
		c3.7-0.4,4.2-1.2,6.8-1.7c2.8-0.5,5.8-0.9,8.8-1.3c3,0.2,5.9,0.7,8.8,0.6c3.2,0,6.3-0.5,9.8-0.8c2.2,0.4,4.6,0.9,6.7,1.4
		c1.8,0.4,2.9,1,4.7,1.4c1.9,0.5-0.2,1.3,3,1.8c4.8-1.5,9.1-2.9,14.2-4.6c2.1,0.9,3.7,1.6,4.8,2.1c8.4,0.6,15.9,1.1,23.4,1.6
		c1,0.5,1.4,1.2,3.1,1.5c4.2,0.6,7.1,1.4,10.3,2.3c4,1,9.1,1.8,12.9,2.9c1.2,0.3,4.8,0.3,7.6,0.4c0.8,0.9,2.1,1.9,2.1,2.8
		c0,0.9-1.5,1.8-2.3,2.7c9.4,0.2,9.3,0.3,10.8,2.1c0.6,0.8,2.6,1.5,0.3,2.3c-1.4,0.5-0.3,0.9,1.4,1.3c0.9,0.2,2.5,0.5,2.4,0.7
		c-0.5,1.2-1.3,2.4-2,3.6c-9,0.5-14.7-0.7-20.3-1.5c-5.9,0.5-11.1,1-16.9,1.5c-0.7,1.2,1.2,2.4,2.5,3.7c5.3,0.1,10.1,0.3,13.2-0.2
		c3.7-0.6,1.2-1.7,6.2-1.9c2,0.4,4.3,0.8,6.7,1.3c3.5-0.1,7.2-0.1,12.6-0.2c-5.3,0.7-9.6,0.8-12.7,1.5c8.5,2.1,12.5,4.3,6,7
		c7.8,1.2,15,2.3,22.3,3.4c1.8,0.3,3.8,0.5,5.9,0.7c4.4,0.4,8.4,1.2,13.7,0.4c1-0.1,4.1,0.1,4.7,0.3c3.9,1.5,12.4,0.9,17.2,1.9
		c9.3-0.5,30.2,42.8,38.8,43"/>
	<path d="M5491.3,527.4c-4.2,1.1-7.1,1.8-10,2.5c3,0.7,5.4,0.4,7.1-0.1c3.9-1.2,9.3-1.8,15.3-2.2c1.5-0.1,3.3,0,5.1,0
		c1.1,1.4-5.6,1.5-7,2.6c3.9,0.5,8.1,1,13.6,1.7c-5.1,0.4-9,0.7-13.3,1c0.8,0.7,1.6,1.3,2.8,2.3c-10.8-1.2-18.2-2.8-26.9-4.5
		c-1.4,0.4-2.7,0.8-4.4,1.3c-2.3-0.8-4.5-1.6-7.1-2.5c4.9-0.3,9.2-0.3,13-0.7C5482.9,528.4,5485,527.5,5491.3,527.4z"/>
	<path d="M2151.3,104.5c-6.5-1.4-4.5-2.8-4.3-4.1c0.1-0.7,3-1.3,4.8-2c0.2-0.1,1.6,0,2.4,0c0.3,0,0.8,0.1,0.7,0.2
		c-0.5,0.6-2.9,1.1-2,1.8c0.8,0.6,0.2,1.3,0.2,2c1.6,0.1,3.3,0.2,5.1,0.2C2158.2,103.7,2154,103.8,2151.3,104.5z"/>
	<path d="M5464.1,534.7c-7.7-1.2-12-2.3-10-4.3C5466,531.6,5466.5,531.8,5464.1,534.7z"/>
	<path d="M3610.6,340.5c1.8,0.7,3.3,1.3,4.7,1.8c-1.3,0.2-2,0.4-2.6,0.4c-2.2,0-17.6-42-19.6-42.2c-1.4-0.1-3.3-0.4-3.4-0.7
		c-0.1-0.3,1.6-0.6,2.8-0.9C3593.4,298.8,3607.9,340.7,3610.6,340.5z"/>
	<path d="M3257.3,242.5c-2.5-0.8-1.5-1.6,0.3-2.5c4.3,0.2,3.5,1.1,5,1.7c-2.1,0.3-3.8,0.5-5.5,0.7
		C3257.1,242.5,3257.3,242.5,3257.3,242.5z"/>
	<path d="M2150,106.5c-0.8,0-1.9,0-2.4-0.1c-1.3-0.3-2.3-0.7-3.4-1c0.6-0.1,1.3-0.3,1.9-0.3c2.9,0,4.9,0.2,4.8,0.9
		C2151,106.2,2150.4,106.3,2150,106.5z"/>
	<path d="M3572,295.1c-1.1,0.4-2,0.9-3.2,1.3c-0.4,0.1-1.5,0.1-2.3,0.2c-0.1-0.3-0.8-0.6-0.3-0.8c1.3-0.4,3.1-0.6,4.7-0.9
		C3571.3,294.9,3571.7,295,3572,295.1z"/>
	<path d="M3277.6,773.4c-1.2,0.5-2.4,1-3.7,1.5c-2.9-0.8,1.1-1.1,1.5-1.6c0.1-0.1,0.6-0.1,1-0.2
		C3276.6,773.2,3276.9,773.3,3277.6,773.4z"/>
	<path d="M3303.4,774.2c1.3-0.6,2.7-1.2,4.6-2.1C3309.9,773.3,3307.8,773.9,3303.4,774.2z"/>
	<path d="M2169.2,88c1.1,0.4,2.2,0.7,3.1,1.1c0.1,0-1.1,0.3-1.8,0.3c-1.8,0-4.2-0.5-3.8-1C2166.8,88.3,2167.9,88.2,2169.2,88z"/>
	<path d="M2161.8,95.7c-2.7,0.5-4.3,0.8-5.8,1.1c-2.4-0.4-2.8-0.9-0.8-1.2C2156.4,95.4,2158.8,95.6,2161.8,95.7z"/>
	<path d="M3590.4,291.8c-0.5-0.5-1.1-0.8-0.9-1.1c0.1-0.2,0.8-0.6,1.7-0.7c0.9-0.1,2.8,0.1,3.2,0.2c0.5,0.2,0.1,0.6-0.4,0.8
		C3593.4,291.3,3592.2,291.5,3590.4,291.8z"/>
	<path d="M3266.2,240.1c-0.8-0.1-1.9-0.2-1.8-0.3c0.1-0.2,0.6-0.4,1.2-0.4c0.6-0.1,1.6,0,2.4,0
		C3267.4,239.6,3266.8,239.8,3266.2,240.1z"/>
	<path d="M3612.3,334.5c0.4,0.1,1.3,0.3,1.2,0.4c-0.6,0.2-1.5,0.3-2.3,0.4c-0.2-0.2-0.7-0.4-0.5-0.5
		C3610.9,334.6,3611.8,334.6,3612.3,334.5z"/>
	<path d="M5299.6,600.8c-0.2,0.1-0.3,0.2-0.5,0.2c-1.1,0-2.3,0.1-3.4,0.1c-0.2,0-0.4-0.2-0.5-0.4c1.2,0,2.3-0.1,3.5-0.1
		C5299,600.6,5299.3,600.7,5299.6,600.8z"/>
	<polygon points="4914.9,432.8 4914.1,432.7 4915,432.6 	"/>
	<path d="M5155.1,482.8c-0.2,0.1-0.6,0.2-0.7,0.2c-0.7,0-1.4-0.1-2-0.2c0.6-0.1,1.3-0.2,1.9-0.3
		C5154.4,482.5,5154.9,482.7,5155.1,482.8z"/>
	<path d="M5190.5,486.3c-0.5-0.2-0.9-0.3-1.4-0.5c-0.1,0.1-0.3,0.2-0.4,0.2c0.7,0.1,1.4,0.1,2.1,0.2
		C5190.9,486.2,5190.5,486.3,5190.5,486.3z"/>
	<polygon points="5337.9,603.7 5338.8,603.8 5337.9,603.8 	"/>
	<path d="M5280.5,607.3c-0.1,0.1-0.2,0.1-0.3,0.1c-0.3,0-0.6,0-1-0.1c0.1-0.1,0.2-0.1,0.3-0.1
		C5279.8,607.2,5280.2,607.3,5280.5,607.3z"/>
	<polygon points="4240.9,731.5 4241.8,731.5 4241.4,731.8 	"/>
	<polygon points="3510.9,744 3510.3,744 3510.6,743.8 	"/>
	<path d="M3284.2,773.3c0.1,0.1,0.4,0.1,0.4,0.2c0,0.1-0.4,0.1-0.6,0.2c-0.1-0.1-0.4-0.1-0.4-0.2
		C3283.6,773.4,3284,773.3,3284.2,773.3z"/>
</g>
<polygon points="3558.8,378 3690.8,355.5 3657.3,328.5 3581.8,311 "/>
<path d="M3644.7,328.7c0,0-12.7-4-26.7-12.7s-14-9.3-27.3-12.7c-13.3-3.3,3.3,4.7-41.3-7.3c-44.7-12-71.3-13.3-77.3-13.3
	s-33.3,0-33.3,0l-58.7,36c0,0,183.3,54.7,192.7,56.7C3582,377.3,3644.7,328.7,3644.7,328.7z"/>
</svg>
